<svg width="109" height="44" viewBox="0 0 109 44" fill="none" xmlns="http://www.w3.org/2000/svg">
<path d="M65.714 29.0727C65.714 27.657 65.4032 26.5982 63.5957 26.5982C61.8458 26.5982 61.4774 27.5995 61.4774 29.0727C61.4774 30.5804 61.8573 31.5817 63.5611 31.5817C65.3456 31.5817 65.714 30.6034 65.714 29.0727ZM60.5333 29.0727C60.5333 27.2772 61.0974 25.804 63.3194 25.804C64.7585 25.804 65.4377 26.3219 65.7025 26.9665V23.4331H66.6465V32.2953H66.1054C66.0824 32.1226 66.0018 31.6853 65.9212 31.0868C65.668 31.7658 64.9427 32.3643 63.3539 32.3643C61.1205 32.3758 60.5333 30.8911 60.5333 29.0727Z" fill="#FFFFFF"/>
<path d="M72.5986 29.4752V29.0378L70.3997 29.3371C69.0872 29.5212 68.6037 29.7974 68.6037 30.4535C68.6037 31.2131 69.2484 31.6159 70.2961 31.6159C71.5855 31.6159 72.5986 30.8908 72.5986 29.4752ZM67.6367 30.465C67.6367 29.3025 68.4541 28.8076 70.273 28.6005L72.6101 28.3242C72.5986 27.1733 72.2187 26.5518 70.6069 26.5518C69.1448 26.5518 68.7534 27.1503 68.7534 28.1056H67.8209C67.8209 26.782 68.385 25.8037 70.5954 25.8037C73.1742 25.8037 73.5541 26.9086 73.5541 28.612V32.295H73.0246L72.8289 30.9944C72.4835 31.7885 71.4588 32.3755 70.1234 32.3755C68.7419 32.3755 67.6367 31.7885 67.6367 30.465Z" fill="#FFFFFF"/>
<path d="M74.9816 30.4189V26.6554H74.1067V26.0684L74.9816 25.8497V24.2729H75.9027V25.8727H77.9289V26.6554H75.9372V30.4189C75.9372 31.213 76.2595 31.5698 77.4914 31.5698C77.6295 31.5698 77.7677 31.5698 77.9289 31.5583V32.341C77.7332 32.3525 77.5374 32.364 77.3648 32.364C75.6954 32.364 74.9816 31.8115 74.9816 30.4189Z" fill="#FFFFFF"/>
<path d="M83.098 29.4752V29.0378L80.8991 29.3371C79.5867 29.5212 79.1032 29.7974 79.1032 30.4535C79.1032 31.2131 79.7479 31.6159 80.7955 31.6159C82.0849 31.6159 83.098 30.8908 83.098 29.4752ZM78.1361 30.465C78.1361 29.3025 78.9535 28.8076 80.7725 28.6005L83.1096 28.3242C83.098 27.1733 82.7181 26.5518 81.1064 26.5518C79.6443 26.5518 79.2528 27.1503 79.2528 28.1056H78.3203C78.3203 26.782 78.8844 25.8037 81.0948 25.8037C83.6737 25.8037 84.0536 26.9086 84.0536 28.612V32.295H83.524L83.3283 30.9944C82.9829 31.7885 81.9583 32.3755 80.6228 32.3755C79.2413 32.3755 78.1361 31.7885 78.1361 30.465Z" fill="#FFFFFF"/>
<path d="M60.5218 41.2262H61.4429C61.4313 42.3196 62.053 42.9296 63.5497 42.9296C64.9197 42.9296 65.3917 42.3656 65.3917 41.8822C65.3917 40.2364 60.66 41.2377 60.66 38.9474C60.66 37.9461 61.3853 37.1289 63.3885 37.1289C65.4147 37.1289 66.14 38.0957 66.14 39.4998H65.265C65.242 38.4985 64.7585 37.8885 63.377 37.8885C61.8688 37.8885 61.604 38.441 61.604 38.9359C61.604 40.4321 66.2897 39.4998 66.2897 41.8362C66.2897 42.7569 65.5413 43.7007 63.5612 43.7007C61.4313 43.6892 60.4758 42.849 60.5218 41.2262Z" fill="#FFFFFF"/>
<path d="M72.1266 40.4091C72.1266 39.0625 71.7121 37.923 70.0083 37.923C68.3159 37.923 67.8899 39.051 67.8899 40.4091C67.8899 41.7671 68.3044 42.9181 69.9967 42.9181C71.7006 42.9181 72.1266 41.7902 72.1266 40.4091ZM66.9344 40.4091C66.9344 38.7287 67.5791 37.1289 70.0083 37.1289C72.4374 37.1289 73.0821 38.7287 73.0821 40.4091C73.0821 42.1124 72.4374 43.6892 69.9967 43.6892C67.5676 43.6892 66.9344 42.1009 66.9344 40.4091Z" fill="#FFFFFF"/>
<path d="M74.9702 34.7578H74.0377V43.62H74.9702V34.7578Z" fill="#FFFFFF"/>
<path d="M76.1329 40.6623V37.198H77.0539V40.7314C77.0539 42.1125 77.3418 42.8951 78.9881 42.8951C80.6344 42.8951 80.9913 42.0895 80.9913 40.6738V37.1865H81.9353V43.6087H81.4057L81.2215 42.4578C80.9682 43.1138 80.2775 43.6893 78.7348 43.6893C76.5359 43.6893 76.1329 42.5038 76.1329 40.6623Z" fill="#FFFFFF"/>
<path d="M83.6507 41.7329V37.9693H82.7758V37.3824L83.6507 37.1637V35.5869H84.5717V37.1867H86.598V37.9693H84.6063V41.7329C84.6063 42.527 84.9286 42.8838 86.1605 42.8838C86.2986 42.8838 86.4368 42.8838 86.598 42.8723V43.6549C86.4022 43.6664 86.2065 43.6779 86.0338 43.6779C84.3645 43.6779 83.6507 43.1255 83.6507 41.7329Z" fill="#FFFFFF"/>
<path d="M87.4614 37.1978H88.3939V43.62H87.4614V37.1978ZM87.2196 35.5635C87.2196 35.0916 87.4959 34.9995 87.9334 34.9995C88.3478 34.9995 88.6241 35.0916 88.6241 35.5635C88.6241 36.0123 88.3478 36.1389 87.9334 36.1389C87.4959 36.1504 87.2196 36.0238 87.2196 35.5635Z" fill="#FFFFFF"/>
<path d="M94.5186 40.4091C94.5186 39.0625 94.1042 37.923 92.4003 37.923C90.7079 37.923 90.282 39.051 90.282 40.4091C90.282 41.7671 90.6964 42.9181 92.3888 42.9181C94.0926 42.9181 94.5186 41.7902 94.5186 40.4091ZM89.3264 40.4091C89.3264 38.7287 89.9711 37.1289 92.4003 37.1289C94.8294 37.1289 95.4742 38.7287 95.4742 40.4091C95.4742 42.1124 94.8295 43.6892 92.3888 43.6892C89.9596 43.6892 89.3264 42.1009 89.3264 40.4091Z" fill="#FFFFFF"/>
<path d="M96.4182 37.1982H96.8557L97.132 38.3607C97.3853 37.6931 98.076 37.1177 99.6187 37.1177C101.795 37.1177 102.209 38.3377 102.209 40.1907V43.6089H101.265V40.1101C101.265 38.729 101 37.9118 99.3539 37.9118C97.7076 37.9118 97.3507 38.706 97.3507 40.1101V43.6089H96.4067V37.1982H96.4182Z" fill="#FFFFFF"/>
<path d="M103.061 41.2262H103.982C103.971 42.3196 104.592 42.9296 106.089 42.9296C107.459 42.9296 107.931 42.3656 107.931 41.8822C107.931 40.2364 103.199 41.2377 103.199 38.9474C103.199 37.9461 103.924 37.1289 105.928 37.1289C107.954 37.1289 108.679 38.0957 108.679 39.4998H107.804C107.781 38.4985 107.298 37.8885 105.916 37.8885C104.408 37.8885 104.143 38.441 104.143 38.9359C104.143 40.4321 108.829 39.4998 108.829 41.8362C108.829 42.7569 108.081 43.7007 106.1 43.7007C103.982 43.6892 103.026 42.849 103.061 41.2262Z" fill="#FFFFFF"/>
<path d="M55.7672 18.7256L51.6341 16.3432L55.7672 13.9608C56.2967 13.6615 56.6767 13.2012 56.8493 12.6832C57.1947 11.6359 56.7803 10.508 55.8247 9.96704L38.5903 0L38.4637 0.218676V3.30317C38.4637 4.47711 39.0969 5.5705 40.11 6.15747L50.1029 11.9236L47.0521 13.6845L38.5903 8.7931L38.4637 9.01177V12.0963C38.4637 13.2587 39.0854 14.3521 40.087 14.9391L42.4701 16.3317H42.4586L47.0061 19.0018L47.0521 18.9788L50.1029 20.7397L45.4749 23.4099L45.5555 23.5595C46.2002 24.7335 46.6261 26.1146 46.8103 27.6568L46.8449 27.91L55.8247 22.7193C56.7803 22.1669 57.1947 21.0505 56.8493 20.0031C56.6767 19.4852 56.2967 19.0249 55.7672 18.7256Z" fill="#00B1E2"/>
<path d="M29.3226 28.2896C29.3226 27.1157 30.14 26.4021 32.8685 26.4021C35.7697 26.4021 36.7253 27.6221 36.7253 29.5211H43.2644C43.2644 24.434 40.7662 21.7753 32.8685 21.7753C25.2472 21.7753 22.1963 24.8483 22.1963 28.6809C22.1963 36.254 37.0361 33.8946 37.0361 37.2208C37.0361 38.3142 36.0345 39.2349 33.2254 39.2349C29.6795 39.2349 28.6895 37.8883 28.6895 35.8742H21.8394C21.8394 41.767 25.3393 43.9998 33.4557 43.9998C41.031 43.9998 44.0818 40.4204 44.0818 37.1402C44.0818 29.0492 29.3226 31.5698 29.3226 28.2896ZM11.5817 43.6085H18.708V22.1552H11.5817V43.6085ZM0 11.2559V16.8264V43.597H7.08026V16.8379V11.2674H6.89606H0V11.2559Z" fill="#FFFFFF"/>
<path d="M11.1558 15.3764C11.1558 13.1551 12.9632 11.3481 15.1852 11.3481C17.4071 11.3481 19.2146 13.1551 19.2146 15.3764C19.2146 17.5977 17.4071 19.4046 15.1852 19.4046C12.9632 19.3931 11.1558 17.5977 11.1558 15.3764Z" fill="#FFFFFF"/>
</svg>
